<svg xmlns="http://www.w3.org/2000/svg" viewBox="0 0 408.99 150.5"><defs><style>.cls-1{fill:#1e2044;}</style></defs><title>logo1_1</title><g id="Camada_2" data-name="Camada 2"><g id="Camada_1-2" data-name="Camada 1"><path class="cls-1" d="M0,25.5H17.7V120H0Z"/><path class="cls-1" d="M211.62,101.28q0,20.37-23,20.43t-22.91-20.43V44.65q0-20.38,22.91-20.38t23,20.38Zm-17.7-56.63q0-5.31-5.21-5.36h-.11c-3.44,0-5.15,1.78-5.15,5.36v56.63q0,5.31,5.2,5.31t5.27-5.31Z"/><path class="cls-1" d="M224.38,25.5h24.5q21.38.06,21.37,20.44V59.88q0,9.6-7.12,12.87,7.13,3.27,7.12,12.87v14q0,20.32-22.27,20.37h-23.6Zm17.7,15.07V65.19h3.4a15.52,15.52,0,0,0,3.72-.27c2.24-.79,3.35-2.47,3.35-5V45.94q0-5.37-5.21-5.37Zm0,39.74v24.62h5.26q5.21,0,5.21-5.31v-14c0-2.57-1.11-4.24-3.35-5a13.71,13.71,0,0,0-3.72-.32Z"/><path class="cls-1" d="M282.48,25.5h23.23q21.36.06,21.37,20.44V59.88q0,12.81-11.59,16.62L332.55,120H313.26L301.14,79.35h-1V120h-17.7Zm17.7,15.07V65.19h2.13a15.64,15.64,0,0,0,3.72-.27,4.82,4.82,0,0,0,3.35-5V45.94q0-5.37-5.21-5.37Z"/><path class="cls-1" d="M338.19,25.5h41.67V40.57h-24V65.19h20.62V80.31H355.89v24.62h24V120H338.19Z"/><path class="cls-1" d="M391.29,25.5H409V120h-17.7Z"/><path class="cls-1" d="M167.82,119.39a70.94,70.94,0,0,1-4.6,5.53,79.71,79.71,0,0,1-58.94,25.58c-43.33,0-78.46-33.69-78.46-75.25S61,0,104.28,0a81.75,81.75,0,0,1,24.86,3.85q3.88,1.26,7.58,2.86l4.78,10,2.35,4.95L138.69,24l-11,4.84A55.08,55.08,0,0,0,120.31,26a56.07,56.07,0,0,0-16-2.32c-29.72,0-53.82,23.08-53.82,51.56s24.1,51.56,53.82,51.56a54.74,54.74,0,0,0,40.08-17.14,51.9,51.9,0,0,0,5.53-7l.34,17.07Z"/></g></g></svg>