<svg xmlns="http://www.w3.org/2000/svg" xmlns:xlink="http://www.w3.org/1999/xlink" viewBox="0 0 331.5 352.05"><defs><style>.cls-1{fill:#d4ecff;}.cls-2{fill:#5793ce;}.cls-3{fill:#396caa;}.cls-4{fill:#173d7a;}.cls-5{fill:#274f89;}.cls-6{fill:#fff;}.cls-7{fill:#ff2c9c;}.cls-8{fill:#e83b1f;}.cls-9{fill:#e2e2e2;}.cls-10{fill:url(#Áåçûìÿííûé_ãðàäèåíò_242);}.cls-11{fill:#eaeaea;}.cls-12{fill:#ffc2b0;}.cls-13{fill:#ea9c92;}.cls-14{fill:#d3008d;}</style><radialGradient id="Áåçûìÿííûé_ãðàäèåíò_242" cx="-25.06" cy="88.68" r="49.07" gradientUnits="userSpaceOnUse"><stop offset="0" stop-color="#01c8ef"/><stop offset="0.09" stop-color="#03bee9"/><stop offset="0.24" stop-color="#08a5d7"/><stop offset="0.43" stop-color="#107bbb"/><stop offset="0.45" stop-color="#1177b8"/><stop offset="1" stop-color="#112564"/></radialGradient></defs><title>Ativo 1</title><g id="Camada_2" data-name="Camada 2"><g id="Ñëîé_1" data-name="Ñëîé 1"><path class="cls-1" d="M294.7,97.24v85.27c0,2.89-2,4.07-4.54,2.62L175,118.62a10,10,0,0,1-4.54-7.87V25.48Z"/><path class="cls-2" d="M196.43,179.77a.67.67,0,0,1-.33-1.26l9.1-5.26a3.36,3.36,0,0,0,1.68-2.91v-7.05a.67.67,0,0,1,1.34,0v7.05a4.73,4.73,0,0,1-2.34,4.07l-9.11,5.27A.69.69,0,0,1,196.43,179.77Z"/><rect class="cls-2" x="189.4" y="175.54" width="5.55" height="11.97" transform="translate(254.05 -75.49) rotate(60.17)"/><path class="cls-2" d="M199.32,179.68a4.32,4.32,0,0,0-1.95-3.4c-1.08-.63-2-.13-2,1.13a4.35,4.35,0,0,0,2,3.4C198.44,181.44,199.32,180.93,199.32,179.68Z"/><rect class="cls-2" x="176.16" y="178.74" width="8.99" height="18.77" transform="translate(253.99 -62.18) rotate(60.17)"/><path class="cls-3" d="M187.31,181.11l3.52-2a7.21,7.21,0,0,1,2.76,4.81l-3.52,2A7.21,7.21,0,0,1,187.31,181.11Z"/><path class="cls-2" d="M192,185.3a7,7,0,0,0-3.16-5.51c-1.75-1-3.18-.2-3.18,1.82a7,7,0,0,0,3.16,5.51C190.54,188.14,192,187.33,192,185.3Z"/><path class="cls-1" d="M196.05,178.4a.57.57,0,0,0,0-1.07,2.05,2.05,0,0,0-1.84,0,.56.56,0,0,0,0,1.06A2,2,0,0,0,196.05,178.4Z"/><path class="cls-2" d="M56.21,180.92a.66.66,0,0,1-.33-.09l-8-4.6a2.06,2.06,0,0,1-1.06-1.84,2.1,2.1,0,0,1,1.09-1.83l51.71-28.31a14.85,14.85,0,0,0,7.73-13V67a3.11,3.11,0,0,0-4.61-2.73l-17.24,9.4a.68.68,0,0,1-.91-.27.66.66,0,0,1,.27-.91l17.24-9.4A4.46,4.46,0,0,1,108.71,67v64.26a16.2,16.2,0,0,1-8.42,14.21L48.58,173.74a.79.79,0,0,0-.4.66.76.76,0,0,0,.39.67l8,4.59a.67.67,0,0,1,.24.92A.66.66,0,0,1,56.21,180.92Z"/><rect class="cls-2" x="80.77" y="68.32" width="5.55" height="11.97" transform="translate(106.45 -35.13) rotate(60.17)"/><path class="cls-2" d="M90.7,72.47a4.35,4.35,0,0,0-2-3.41c-1.08-.62-2-.12-2,1.13a4.35,4.35,0,0,0,2,3.4C89.81,74.22,90.69,73.72,90.7,72.47Z"/><rect class="cls-2" x="67.53" y="71.52" width="8.99" height="18.77" transform="translate(106.39 -21.82) rotate(60.17)"/><path class="cls-3" d="M78.68,73.9l3.52-2A7.21,7.21,0,0,1,85,76.69l-3.52,2A7.23,7.23,0,0,1,78.68,73.9Z"/><path class="cls-2" d="M83.34,78.08a7,7,0,0,0-3.16-5.51c-1.75-1-3.18-.2-3.18,1.83a7,7,0,0,0,3.16,5.51C81.91,80.93,83.34,80.11,83.34,78.08Z"/><path class="cls-1" d="M87.42,71.18a.56.56,0,0,0,0-1.06,2,2,0,0,0-1.84,0,.57.57,0,0,0,0,1.07A2.05,2.05,0,0,0,87.42,71.18Z"/><rect class="cls-2" x="54.85" y="174.78" width="5.55" height="11.97" transform="translate(243.09 220.7) rotate(119.83)"/><path class="cls-2" d="M50.47,178.92a4.35,4.35,0,0,1,2-3.4c1.08-.63,2-.12,2,1.13a4.35,4.35,0,0,1-2,3.4C51.35,180.68,50.47,180.17,50.47,178.92Z"/><rect class="cls-2" x="64.64" y="177.98" width="8.99" height="18.77" transform="translate(266.07 220.59) rotate(119.83)"/><path class="cls-3" d="M62.48,180.35l-3.51-2a7.13,7.13,0,0,0-2.76,4.81l3.51,2A7.13,7.13,0,0,0,62.48,180.35Z"/><path class="cls-2" d="M57.82,184.54A7,7,0,0,1,61,179c1.75-1,3.17-.2,3.18,1.82A7.05,7.05,0,0,1,61,186.37C59.26,187.39,57.83,186.57,57.82,184.54Z"/><path class="cls-1" d="M53.75,177.64a.56.56,0,0,1,0-1.06,2,2,0,0,1,1.84,0,.56.56,0,0,1,0,1.06A2,2,0,0,1,53.75,177.64Z"/><path class="cls-1" d="M153.07,290.26,38.44,224.08c-3.24-1.87-2.84-5.14.91-7.3l78.05-45.05c3.74-2.17,9.41-2.4,12.65-.53l114.63,66.18c3.24,1.87,2.84,5.15-.91,7.31l-78.05,45.05C162,291.9,156.31,292.13,153.07,290.26Z"/><path class="cls-4" d="M246.87,225,231.2,223l-101.15-58.4c-3.24-1.87-8.91-1.64-12.65.52L45.73,206.45l-9.48-1.25v5.37h0a3.69,3.69,0,0,0,2.18,3.32l114.63,66.18c3.24,1.88,8.9,1.64,12.65-.52l78.05-45.05c2.11-1.21,3.16-2.78,3.1-4.25h0Z"/><path class="cls-3" d="M170.87,188.12,163.68,184h-79l-39,22.47-9.48-1.25v5.37h0a3.69,3.69,0,0,0,2.18,3.32l114.63,66.18a11.85,11.85,0,0,0,6.53,1.23Z"/><path class="cls-2" d="M40.46,205.75l-4.21-.55v5.37h0a3.69,3.69,0,0,0,2.18,3.32l2,1.17Z"/><path class="cls-5" d="M154.22,280.61a14.66,14.66,0,0,0,10.75-.67V268H154.22Z"/><path class="cls-1" d="M153.07,274.71,38.44,208.52c-3.24-1.87-2.84-5.14.91-7.3l78.05-45.05c3.74-2.16,9.41-2.39,12.65-.52l114.63,66.18c3.24,1.87,2.84,5.14-.91,7.3l-78.05,45.05C162,276.34,156.31,276.58,153.07,274.71Z"/><path class="cls-6" d="M243.77,227.17l-78.05,45.05c-3.75,2.16-9.41,2.39-12.65.52L38.44,206.56a4.29,4.29,0,0,1-2-2.2c-.5,1.53.14,3.08,2,4.16l114.63,66.19c3.24,1.87,8.9,1.63,12.65-.53l78.05-45.05c2.52-1.45,3.52-3.4,2.93-5.1A6.1,6.1,0,0,1,243.77,227.17Z"/><path class="cls-4" d="M87.19,186.62l-5.18-3c-.42-.24-.37-.66.11-.94l6.12-3.53a1.81,1.81,0,0,1,1.63-.07l5.18,3c.42.24.37.66-.11.93l-6.12,3.54A1.81,1.81,0,0,1,87.19,186.62Z"/><path class="cls-4" d="M95.2,191.24l-5.19-3c-.41-.24-.36-.66.12-.93l6.12-3.54a1.78,1.78,0,0,1,1.63-.06l5.18,3c.42.24.37.66-.11.94l-6.12,3.53A1.81,1.81,0,0,1,95.2,191.24Z"/><path class="cls-4" d="M103.21,195.86l-5.19-3c-.41-.24-.36-.66.12-.94l6.12-3.53a1.81,1.81,0,0,1,1.63-.07l5.18,3c.42.24.37.66-.11.94l-6.12,3.54A1.84,1.84,0,0,1,103.21,195.86Z"/><path class="cls-4" d="M114.29,192l-5.19-3c-.41-.24-.36-.66.12-.94l5.14-3a1.79,1.79,0,0,1,1.62-.07l5.19,3c.41.24.36.66-.12.94l-5.14,3A1.79,1.79,0,0,1,114.29,192Z"/><path class="cls-4" d="M122.3,196.67l-5.19-3c-.42-.24-.36-.66.12-.93l5.14-3a1.79,1.79,0,0,1,1.62-.07l5.19,3c.41.24.36.66-.12.93l-5.14,3A1.79,1.79,0,0,1,122.3,196.67Z"/><path class="cls-4" d="M130.31,201.29l-5.19-3c-.42-.24-.36-.66.12-.94l5.14-3a1.82,1.82,0,0,1,1.62-.06l5.19,3c.41.24.36.66-.12.94l-5.14,3A1.82,1.82,0,0,1,130.31,201.29Z"/><path class="cls-4" d="M138.32,205.92l-5.19-3c-.42-.24-.36-.66.12-.93l5.14-3A1.79,1.79,0,0,1,140,199l5.19,3c.41.24.36.66-.12.93l-5.14,3A1.79,1.79,0,0,1,138.32,205.92Z"/><path class="cls-4" d="M146.33,210.54l-5.19-3c-.42-.24-.36-.66.12-.94l5.14-3a1.79,1.79,0,0,1,1.62-.07l5.19,3c.41.24.36.66-.12.94l-5.14,3A1.79,1.79,0,0,1,146.33,210.54Z"/><path class="cls-4" d="M154.34,215.17l-5.19-3c-.42-.24-.37-.66.12-.94l5.13-3a1.81,1.81,0,0,1,1.63-.07l5.19,3c.41.24.36.66-.12.94l-5.14,3A1.79,1.79,0,0,1,154.34,215.17Z"/><path class="cls-4" d="M162.34,219.79l-5.18-3c-.42-.24-.37-.66.12-.94l5.13-3a1.81,1.81,0,0,1,1.63-.07l5.19,3c.41.24.36.66-.12.94l-5.14,3A1.81,1.81,0,0,1,162.34,219.79Z"/><path class="cls-4" d="M170.35,224.41l-5.18-3c-.42-.24-.37-.66.11-.94l5.14-3a1.81,1.81,0,0,1,1.63-.07l5.18,3c.42.24.37.66-.11.94l-5.14,3A1.84,1.84,0,0,1,170.35,224.41Z"/><path class="cls-4" d="M178.36,229l-5.18-3c-.42-.24-.37-.66.11-.93l5.14-3a1.81,1.81,0,0,1,1.63-.07l5.18,3c.42.24.37.66-.11.93L180,229A1.81,1.81,0,0,1,178.36,229Z"/><path class="cls-4" d="M186.37,233.66l-5.18-3c-.42-.24-.37-.66.11-.94l5.14-3a1.84,1.84,0,0,1,1.63-.06l5.18,3c.42.24.37.66-.11.94l-5.14,3A1.84,1.84,0,0,1,186.37,233.66Z"/><path class="cls-3" d="M126.09,189.86l-5.19-3c-.41-.24-.36-.66.12-.94l5.14-3a1.79,1.79,0,0,1,1.62-.07l5.19,3c.42.24.36.66-.12.94l-5.14,3A1.79,1.79,0,0,1,126.09,189.86Z"/><path class="cls-3" d="M118,185.16l-5.19-3c-.41-.24-.36-.66.12-.94l5.14-3a1.79,1.79,0,0,1,1.62-.06l5.19,3c.42.24.37.66-.12.94l-5.13,3A1.81,1.81,0,0,1,118,185.16Z"/><path class="cls-4" d="M109.82,180.46,98.65,174c-.42-.24-.37-.66.11-.94l5.14-3a1.81,1.81,0,0,1,1.63-.07l11.17,6.45c.41.24.36.66-.12.94l-5.14,3A1.79,1.79,0,0,1,109.82,180.46Z"/><path class="cls-4" d="M115.51,174.74l-9.07-5.23c-.41-.24-.36-.66.12-.94l5.14-3a1.79,1.79,0,0,1,1.62-.07l9.07,5.23c.42.24.36.66-.12.94l-5.14,3A1.82,1.82,0,0,1,115.51,174.74Z"/><path class="cls-3" d="M134.1,194.48l-5.19-3c-.41-.25-.36-.67.12-.94l5.14-3a1.79,1.79,0,0,1,1.62-.07l5.19,3c.42.24.36.66-.12.94l-5.14,3A1.79,1.79,0,0,1,134.1,194.48Z"/><path class="cls-4" d="M142.11,199.1l-5.19-3c-.41-.24-.36-.66.12-.94l5.14-3a1.82,1.82,0,0,1,1.62-.06l5.19,3c.42.24.36.66-.12.94l-5.14,3A1.82,1.82,0,0,1,142.11,199.1Z"/><path class="cls-4" d="M150.12,203.73l-5.19-3c-.41-.24-.36-.66.12-.93l5.14-3a1.79,1.79,0,0,1,1.62-.07l5.19,3c.41.24.36.66-.12.93l-5.14,3A1.79,1.79,0,0,1,150.12,203.73Z"/><path class="cls-4" d="M158.13,208.35l-5.19-3c-.42-.24-.36-.66.12-.94l5.14-3a1.82,1.82,0,0,1,1.62-.06l5.19,3c.41.24.36.66-.12.94l-5.14,3A1.82,1.82,0,0,1,158.13,208.35Z"/><path class="cls-4" d="M166.14,213,161,210c-.42-.24-.36-.66.12-.94l5.14-3a1.79,1.79,0,0,1,1.62-.07l5.19,3c.41.24.36.66-.12.94l-5.14,3A1.79,1.79,0,0,1,166.14,213Z"/><path class="cls-4" d="M174.15,217.6l-5.19-3c-.42-.24-.36-.66.12-.94l5.14-3a1.79,1.79,0,0,1,1.62-.07l5.19,3c.41.24.36.66-.12.94l-5.14,3A1.79,1.79,0,0,1,174.15,217.6Z"/><path class="cls-4" d="M182.16,222.23l-5.19-3c-.42-.24-.36-.66.12-.94l5.13-3a1.81,1.81,0,0,1,1.63-.07l5.19,3c.41.24.36.66-.12.94l-5.14,3A1.79,1.79,0,0,1,182.16,222.23Z"/><path class="cls-4" d="M190.17,226.85l-5.19-3c-.42-.25-.37-.67.12-.94l5.13-3a1.81,1.81,0,0,1,1.63-.07l5.19,3c.41.24.36.66-.12.94l-5.14,3A1.79,1.79,0,0,1,190.17,226.85Z"/><path class="cls-4" d="M198.17,231.47l-5.18-3c-.42-.24-.37-.66.11-.94l5.14-3a1.84,1.84,0,0,1,1.63-.06l5.18,3c.42.24.37.66-.11.94l-5.14,3A1.84,1.84,0,0,1,198.17,231.47Z"/><path class="cls-4" d="M212.41,239.69l-11.31-6.53c-.42-.24-.37-.66.11-.94l5.14-3a1.81,1.81,0,0,1,1.63-.07l11.31,6.53c.42.24.37.66-.11.94l-5.14,3A1.84,1.84,0,0,1,212.41,239.69Z"/><path class="cls-4" d="M228,230.69l-9.55-5.51c-.42-.24-.37-.66.11-.94l5.14-3a1.81,1.81,0,0,1,1.63-.07l9.55,5.52c.41.24.36.66-.12.94l-5.14,3A1.79,1.79,0,0,1,228,230.69Z"/><path class="cls-4" d="M148.13,193.57l-5.19-3c-.42-.24-.37-.66.12-.94l5.13-3a1.81,1.81,0,0,1,1.63-.07l5.19,3c.41.24.36.66-.12.94l-5.14,3A1.76,1.76,0,0,1,148.13,193.57Z"/><path class="cls-4" d="M139.92,188.84l-5.19-3c-.42-.24-.36-.66.12-.94l5.14-3a1.79,1.79,0,0,1,1.62-.07l5.19,3c.41.24.36.66-.12.94l-5.14,3A1.79,1.79,0,0,1,139.92,188.84Z"/><path class="cls-3" d="M131.71,184.1l-5.19-3c-.41-.24-.36-.66.12-.94l5.14-3a1.79,1.79,0,0,1,1.62-.07l5.19,3c.41.24.36.66-.12.94l-5.14,3A1.79,1.79,0,0,1,131.71,184.1Z"/><path class="cls-4" d="M123.5,179.36l-5.19-3c-.41-.24-.36-.66.12-.94l5.14-3a1.79,1.79,0,0,1,1.62-.07l5.19,3c.42.25.36.67-.12.94l-5.14,3A1.79,1.79,0,0,1,123.5,179.36Z"/><path class="cls-4" d="M156.13,198.2l-5.18-3c-.42-.24-.37-.66.11-.93l5.14-3a1.81,1.81,0,0,1,1.63-.07l5.18,3c.42.24.37.66-.11.93l-5.14,3A1.81,1.81,0,0,1,156.13,198.2Z"/><path class="cls-4" d="M164.14,202.82l-5.18-3c-.42-.24-.37-.66.11-.94l5.14-3a1.84,1.84,0,0,1,1.63-.06l5.18,3c.42.24.37.66-.11.94l-5.14,3A1.84,1.84,0,0,1,164.14,202.82Z"/><path class="cls-4" d="M172.15,207.45l-5.18-3c-.42-.24-.37-.66.11-.93l5.14-3a1.81,1.81,0,0,1,1.63-.07l5.18,3c.42.24.37.66-.11.93l-5.14,3A1.81,1.81,0,0,1,172.15,207.45Z"/><path class="cls-4" d="M180.16,212.07l-5.18-3c-.42-.24-.37-.66.11-.94l5.14-3a1.78,1.78,0,0,1,1.63-.06l5.18,3c.42.24.37.66-.11.94l-5.14,3A1.81,1.81,0,0,1,180.16,212.07Z"/><path class="cls-4" d="M188.17,216.7l-5.18-3c-.42-.24-.37-.66.11-.94l5.14-3a1.81,1.81,0,0,1,1.63-.07l5.18,3c.42.24.37.66-.11.94l-5.14,3A1.81,1.81,0,0,1,188.17,216.7Z"/><path class="cls-4" d="M196.18,221.32l-5.18-3c-.42-.24-.37-.66.11-.94l5.14-3a1.81,1.81,0,0,1,1.63-.07l5.18,3c.42.24.37.66-.11.94l-5.14,3A1.81,1.81,0,0,1,196.18,221.32Z"/><path class="cls-4" d="M204.19,225.94,199,223c-.41-.24-.36-.66.12-.94l5.14-3a1.81,1.81,0,0,1,1.63-.07l5.18,3c.42.24.37.66-.12.94l-5.13,3A1.81,1.81,0,0,1,204.19,225.94Z"/><path class="cls-4" d="M212.2,230.57l-5.19-3c-.41-.24-.36-.66.12-.93l5.14-3a1.79,1.79,0,0,1,1.62-.07l5.19,3c.42.24.37.66-.12.93l-5.13,3A1.81,1.81,0,0,1,212.2,230.57Z"/><path class="cls-4" d="M220.21,235.19l-5.19-3c-.41-.24-.36-.66.12-.94l5.14-3a1.82,1.82,0,0,1,1.62-.06l5.19,3c.42.24.36.66-.12.94l-5.14,3A1.82,1.82,0,0,1,220.21,235.19Z"/><path class="cls-4" d="M143.91,182.14l-5.19-3c-.42-.24-.36-.66.12-.94l5.14-3a1.79,1.79,0,0,1,1.62-.07l5.19,3c.41.25.36.67-.12.94l-5.14,3A1.79,1.79,0,0,1,143.91,182.14Z"/><path class="cls-4" d="M135.94,177.54l-5.19-3c-.41-.24-.36-.66.12-.94l5.14-3a1.79,1.79,0,0,1,1.62-.07l5.19,3c.41.24.36.66-.12.94l-5.14,3A1.79,1.79,0,0,1,135.94,177.54Z"/><path class="cls-4" d="M128,172.93l-5.19-3c-.41-.24-.36-.66.12-.94l5.14-3a1.79,1.79,0,0,1,1.62-.07l5.19,3c.42.24.36.66-.12.94l-5.14,3A1.82,1.82,0,0,1,128,172.93Z"/><path class="cls-4" d="M120,168.33l-5.19-3c-.41-.24-.36-.66.12-.94l5.14-3a1.82,1.82,0,0,1,1.62-.06l5.19,3c.42.24.36.66-.12.94l-5.14,3A1.82,1.82,0,0,1,120,168.33Z"/><path class="cls-4" d="M128.19,163.6l-5.18-3c-.42-.24-.37-.66.11-.94l1.7-1a1.81,1.81,0,0,1,1.63-.07l5.18,3c.42.24.37.66-.11.93l-1.7,1A1.81,1.81,0,0,1,128.19,163.6Z"/><path class="cls-4" d="M138.59,169.61l-5.18-3c-.42-.24-.37-.66.11-.94l1.7-1a1.84,1.84,0,0,1,1.63-.06l5.18,3c.42.24.37.66-.11.94l-1.7,1A1.81,1.81,0,0,1,138.59,169.61Z"/><path class="cls-4" d="M146.53,174.19l-5.19-3c-.41-.24-.36-.66.12-.93l1.7-1a1.79,1.79,0,0,1,1.62-.07l5.19,3c.42.24.37.66-.12.94l-1.69,1A1.81,1.81,0,0,1,146.53,174.19Z"/><path class="cls-4" d="M154.47,178.77l-5.19-3c-.42-.24-.36-.66.12-.94l1.7-1a1.79,1.79,0,0,1,1.62-.07l5.19,3c.41.24.36.66-.12.94l-1.7,1A1.79,1.79,0,0,1,154.47,178.77Z"/><path class="cls-4" d="M162.4,183.35l-5.18-3c-.42-.24-.37-.66.11-.94l1.7-1a1.81,1.81,0,0,1,1.63-.07l5.18,3c.42.24.37.66-.11.93l-1.7,1A1.84,1.84,0,0,1,162.4,183.35Z"/><path class="cls-4" d="M206.71,208.93l-5.19-3c-.41-.24-.36-.66.12-.94l1.7-1A1.79,1.79,0,0,1,205,204l5.19,3c.42.24.37.66-.12.94l-1.69,1A1.84,1.84,0,0,1,206.71,208.93Z"/><path class="cls-4" d="M214.65,213.52l-5.19-3c-.42-.24-.36-.66.12-.94l1.7-1a1.76,1.76,0,0,1,1.62-.06l5.19,3c.41.24.36.66-.12.94l-1.7,1A1.79,1.79,0,0,1,214.65,213.52Z"/><path class="cls-4" d="M222.58,218.1l-5.18-3c-.42-.24-.37-.66.11-.93l1.7-1a1.84,1.84,0,0,1,1.63-.06l5.18,3c.42.24.37.66-.11.94l-1.7,1A1.81,1.81,0,0,1,222.58,218.1Z"/><path class="cls-4" d="M230.52,222.68l-5.19-3c-.41-.24-.36-.66.12-.94l1.7-1a1.79,1.79,0,0,1,1.62-.07l5.19,3c.42.24.36.66-.12.94l-1.69,1A1.81,1.81,0,0,1,230.52,222.68Z"/><path class="cls-4" d="M151.92,186.76l-5.19-3c-.42-.24-.36-.66.12-.94l5.14-3a1.79,1.79,0,0,1,1.62-.07l5.19,3c.41.24.36.66-.12.94l-5.14,3A1.79,1.79,0,0,1,151.92,186.76Z"/><path class="cls-4" d="M159.93,191.39l-5.19-3c-.42-.24-.36-.66.12-.94l5.14-3a1.79,1.79,0,0,1,1.62-.07l5.19,3c.41.24.36.66-.12.94l-5.14,3A1.79,1.79,0,0,1,159.93,191.39Z"/><path class="cls-4" d="M167.94,196l-5.19-3c-.42-.25-.36-.66.12-.94l5.14-3a1.79,1.79,0,0,1,1.62-.07l5.19,3c.41.24.36.66-.12.94l-5.14,3A1.79,1.79,0,0,1,167.94,196Z"/><path class="cls-4" d="M176,200.63l-5.19-3c-.42-.24-.37-.66.12-.94l5.13-3a1.84,1.84,0,0,1,1.63-.06l5.19,3c.41.24.36.66-.12.94l-5.14,3A1.82,1.82,0,0,1,176,200.63Z"/><path class="cls-4" d="M184,205.26l-5.19-3c-.42-.24-.37-.66.12-.93l5.13-3a1.81,1.81,0,0,1,1.63-.07l5.19,3c.41.24.36.66-.12.93l-5.14,3A1.79,1.79,0,0,1,184,205.26Z"/><path class="cls-4" d="M192,209.88l-5.18-3c-.42-.24-.37-.66.11-.94l5.14-3a1.84,1.84,0,0,1,1.63-.06l5.18,3c.42.24.37.66-.11.94l-5.14,3A1.84,1.84,0,0,1,192,209.88Z"/><path class="cls-4" d="M200,214.51l-5.18-3c-.42-.24-.37-.66.11-.94l5.14-3a1.81,1.81,0,0,1,1.63-.07l5.18,3c.42.24.37.66-.11.94l-5.14,3A1.81,1.81,0,0,1,200,214.51Z"/><path class="cls-4" d="M208,219.13l-5.18-3c-.42-.24-.37-.66.11-.94l5.14-3a1.81,1.81,0,0,1,1.63-.07l5.18,3c.42.24.37.66-.11.94l-5.14,3A1.81,1.81,0,0,1,208,219.13Z"/><path class="cls-4" d="M216,223.76l-5.18-3c-.42-.24-.37-.66.11-.94l5.14-3a1.81,1.81,0,0,1,1.63-.07l5.18,3c.42.24.37.66-.11.94l-5.14,3A1.81,1.81,0,0,1,216,223.76Z"/><path class="cls-4" d="M106.13,187.33l-15.28-8.82c-.42-.24-.36-.66.12-.93l5.14-3a1.79,1.79,0,0,1,1.62-.07L113,183.36c.41.24.36.66-.12.94l-5.14,3A1.79,1.79,0,0,1,106.13,187.33Z"/><path class="cls-4" d="M204.52,244.14l-15.27-8.82c-.42-.24-.36-.66.12-.93l5.13-3a1.81,1.81,0,0,1,1.63-.07l15.27,8.82c.42.24.37.66-.11.94l-5.14,3A1.81,1.81,0,0,1,204.52,244.14Z"/><path class="cls-4" d="M172.49,235.86l-5.18-3c-.42-.24-.37-.66.11-.94l6.13-3.53a1.79,1.79,0,0,1,1.62-.07l5.19,3c.41.24.36.66-.12.94l-6.12,3.54A1.84,1.84,0,0,1,172.49,235.86Z"/><path class="cls-4" d="M114.33,202.28l-8.3-4.79c-.41-.24-.36-.66.12-.93l6.12-3.54a1.81,1.81,0,0,1,1.63-.07l8.29,4.79c.42.24.37.66-.12.94L116,202.21A1.79,1.79,0,0,1,114.33,202.28Z"/><path class="cls-4" d="M164.78,231.41l-8.3-4.79c-.42-.24-.36-.66.12-.94l6.12-3.53a1.79,1.79,0,0,1,1.62-.07l8.3,4.79c.42.24.36.66-.12.94l-6.12,3.53A1.79,1.79,0,0,1,164.78,231.41Z"/><path class="cls-4" d="M125.88,209l-8.29-4.78c-.42-.25-.36-.67.12-.94l6.12-3.54a1.82,1.82,0,0,1,1.62-.06l8.3,4.78c.41.24.36.66-.12.94l-6.12,3.54A1.84,1.84,0,0,1,125.88,209Z"/><path class="cls-4" d="M125.51,199.66l36.06,20.82c.45.26.45.68,0,.93L155.33,225a1.78,1.78,0,0,1-1.62,0L117.65,204.2Z"/><path class="cls-4" d="M194.88,244.25l5.78,3.33c.34.2.29.54-.1.77l-2.5,1.45a1.48,1.48,0,0,1-1.34,0L191,246.52c-.34-.2-.3-.54.09-.77l2.51-1.45A1.49,1.49,0,0,1,194.88,244.25Z"/><path class="cls-4" d="M186.8,239.59l5.78,3.33c.34.2.3.54-.1.77l-2.5,1.45a1.49,1.49,0,0,1-1.33.05l-5.78-3.33c-.34-.2-.3-.55.1-.77l2.5-1.45A1.46,1.46,0,0,1,186.8,239.59Z"/><path class="cls-4" d="M178.79,235l5.78,3.34c.34.19.3.54-.1.77l-2.5,1.44a1.49,1.49,0,0,1-1.33.06l-5.78-3.34c-.34-.2-.3-.54.1-.77l2.5-1.44A1.46,1.46,0,0,1,178.79,235Z"/><path class="cls-4" d="M191.23,237l5.77,3.34c.34.19.3.54-.09.77l-2.51,1.44a1.49,1.49,0,0,1-1.33.06l-5.78-3.34c-.34-.2-.29-.54.1-.77l2.5-1.44A1.48,1.48,0,0,1,191.23,237Z"/><path class="cls-1" d="M331.5,253.46l-66.15,41a15.7,15.7,0,0,0-5.11,21.61l22.21,36H331.5Z"/><path class="cls-7" d="M285.09,103.08v85.27c0,2.89-2,4.07-4.54,2.62L165.34,124.46a10.06,10.06,0,0,1-4.54-7.87V31.32Z"/><path class="cls-3" d="M275.4,112.5v85.27c0,2.9-2,4.07-4.54,2.63L155.65,133.88a10.06,10.06,0,0,1-4.54-7.86V40.75Z"/><path class="cls-3" d="M151.11,23.81V40.75L275.4,112.5V95.57a10.06,10.06,0,0,0-4.54-7.87L155.65,21.19C153.15,19.74,151.11,20.91,151.11,23.81Zm112.4,65.27c0-1.2.84-1.68,1.87-1.08a4.12,4.12,0,0,1,1.88,3.24c0,1.2-.84,1.68-1.88,1.09A4.17,4.17,0,0,1,263.51,89.08Zm-5.19-3c0-1.2.83-1.68,1.87-1.08a4.14,4.14,0,0,1,1.88,3.25c0,1.19-.84,1.68-1.88,1.08A4.13,4.13,0,0,1,258.32,86.08ZM247,79.55c0-1.2.84-1.68,1.87-1.09a4.15,4.15,0,0,1,1.88,3.25c0,1.2-.84,1.68-1.88,1.08A4.14,4.14,0,0,1,247,79.55Zm-5.2-3c0-1.2.84-1.68,1.88-1.08a4.11,4.11,0,0,1,1.87,3.24c0,1.2-.83,1.68-1.87,1.09A4.15,4.15,0,0,1,241.8,76.55ZM230.49,70c0-1.19.84-1.68,1.87-1.08a4.14,4.14,0,0,1,1.88,3.25c0,1.19-.84,1.68-1.88,1.08A4.16,4.16,0,0,1,230.49,70Zm-5.2-3c0-1.2.84-1.69,1.88-1.09A4.16,4.16,0,0,1,229,69.18c0,1.2-.84,1.68-1.87,1.08A4.14,4.14,0,0,1,225.29,67ZM214,60.48c0-1.19.84-1.68,1.87-1.08a4.14,4.14,0,0,1,1.88,3.25c0,1.19-.84,1.68-1.88,1.08A4.16,4.16,0,0,1,214,60.48Zm-5.2-3c0-1.19.84-1.68,1.88-1.08a4.16,4.16,0,0,1,1.87,3.25c0,1.19-.84,1.68-1.87,1.08A4.14,4.14,0,0,1,208.78,57.48ZM197.47,51c0-1.2.84-1.68,1.87-1.08a4.12,4.12,0,0,1,1.88,3.24c0,1.2-.84,1.68-1.88,1.09A4.17,4.17,0,0,1,197.47,51Zm-5.2-3c0-1.2.84-1.68,1.88-1.08A4.16,4.16,0,0,1,196,50.12c0,1.19-.84,1.68-1.87,1.08A4.14,4.14,0,0,1,192.27,48ZM181,41.42c0-1.2.84-1.68,1.87-1.09a4.15,4.15,0,0,1,1.88,3.25c0,1.2-.84,1.68-1.88,1.08A4.14,4.14,0,0,1,181,41.42Zm-5.2-3c0-1.2.84-1.68,1.88-1.08a4.14,4.14,0,0,1,1.87,3.24c0,1.2-.84,1.68-1.87,1.09A4.15,4.15,0,0,1,175.76,38.42Zm-11.32-6.54c0-1.19.84-1.68,1.88-1.08a4.13,4.13,0,0,1,1.87,3.25c0,1.19-.83,1.68-1.87,1.08A4.14,4.14,0,0,1,164.44,31.88Zm-5.19-3c0-1.2.84-1.68,1.88-1.09A4.16,4.16,0,0,1,163,31.05c0,1.2-.84,1.68-1.87,1.08A4.14,4.14,0,0,1,159.25,28.89Z"/><path class="cls-8" d="M170,45.89l86.51,49.94c.68.4,1.24,0,1.24-.94h0a3,3,0,0,0-1.24-2.38L170,42.57c-.68-.39-1.24,0-1.24.94h0A3,3,0,0,0,170,45.89Z"/><polygon class="cls-2" points="168.24 75.17 177.09 80.28 177.09 72.79 168.24 67.68 168.24 75.17"/><polygon class="cls-2" points="181.77 82.98 190.62 88.09 190.62 80.6 181.77 75.49 181.77 82.98"/><polygon class="cls-2" points="168.24 87.41 177.09 92.52 177.09 85.02 168.24 79.91 168.24 87.41"/><polygon class="cls-2" points="181.77 95.22 190.62 100.33 190.62 92.83 181.77 87.72 181.77 95.22"/><polygon class="cls-9" points="195.3 103.03 204.15 108.14 204.15 100.65 195.3 95.54 195.3 103.03"/><polygon class="cls-9" points="208.83 110.84 217.68 115.95 217.68 108.46 208.83 103.35 208.83 110.84"/><polygon class="cls-9" points="222.36 118.65 231.21 123.76 231.21 116.27 222.36 111.16 222.36 118.65"/><polygon class="cls-9" points="235.89 126.46 244.74 131.57 244.74 124.08 235.89 118.97 235.89 126.46"/><polygon class="cls-9" points="249.42 134.27 258.27 139.38 258.27 131.89 249.42 126.78 249.42 134.27"/><polygon class="cls-2" points="168.24 99.64 177.09 104.75 177.09 97.25 168.24 92.15 168.24 99.64"/><polygon class="cls-2" points="181.77 107.45 190.62 112.56 190.62 105.07 181.77 99.96 181.77 107.45"/><polygon class="cls-9" points="195.3 115.26 204.15 120.37 204.15 112.88 195.3 107.77 195.3 115.26"/><polygon class="cls-9" points="208.83 123.07 217.68 128.18 217.68 120.69 208.83 115.58 208.83 123.07"/><polygon class="cls-9" points="222.36 130.88 231.21 135.99 231.21 128.5 222.36 123.39 222.36 130.88"/><polygon class="cls-9" points="235.89 138.69 244.74 143.81 244.74 136.31 235.89 131.2 235.89 138.69"/><polygon class="cls-9" points="249.42 146.51 258.27 151.62 258.27 144.12 249.42 139.01 249.42 146.51"/><polygon class="cls-2" points="168.24 111.87 177.09 116.98 177.09 109.49 168.24 104.38 168.24 111.87"/><polygon class="cls-2" points="181.77 119.68 190.62 124.79 190.62 117.3 181.77 112.19 181.77 119.68"/><polygon class="cls-9" points="195.3 127.49 204.15 132.6 204.15 125.11 195.3 120 195.3 127.49"/><polygon class="cls-9" points="208.83 135.31 217.68 140.41 217.68 132.92 208.83 127.81 208.83 135.31"/><polygon class="cls-9" points="222.36 143.12 231.21 148.23 231.21 140.73 222.36 135.62 222.36 143.12"/><polygon class="cls-9" points="235.89 150.93 244.74 156.04 244.74 148.54 235.89 143.44 235.89 150.93"/><polygon class="cls-9" points="249.42 158.74 258.27 163.85 258.27 156.36 249.42 151.25 249.42 158.74"/><polygon class="cls-2" points="168.24 124.1 177.09 129.21 177.09 121.72 168.24 116.61 168.24 124.1"/><polygon class="cls-2" points="181.77 131.91 190.62 137.02 190.62 129.53 181.77 124.42 181.77 131.91"/><polygon class="cls-9" points="195.3 139.73 204.15 144.84 204.15 137.34 195.3 132.23 195.3 139.73"/><polygon class="cls-9" points="208.83 147.54 217.68 152.65 217.68 145.16 208.83 140.05 208.83 147.54"/><polygon class="cls-9" points="222.36 155.35 231.21 160.46 231.21 152.97 222.36 147.86 222.36 155.35"/><polygon class="cls-9" points="235.89 163.16 244.74 168.27 244.74 160.78 235.89 155.67 235.89 163.16"/><polygon class="cls-9" points="249.42 170.97 258.27 176.08 258.27 168.59 249.42 163.48 249.42 170.97"/><polygon class="cls-9" points="272.78 201.48 274.07 200.71 272.74 200.43 272.78 201.48"/><path class="cls-1" d="M274.12,113.27v85.27c0,2.9-2,4.07-4.54,2.62L154.37,134.65a10.06,10.06,0,0,1-4.54-7.87V41.51Z"/><path class="cls-3" d="M263.33,88.51a1.74,1.74,0,0,0-.2.84A4.16,4.16,0,0,0,265,92.61a1.82,1.82,0,0,0,.77.25c-.31.53-.94.66-1.67.24a4.16,4.16,0,0,1-1.88-3.26C262.23,89,262.68,88.47,263.33,88.51Z"/><path class="cls-3" d="M258.14,85.51a1.74,1.74,0,0,0-.2.84,4.16,4.16,0,0,0,1.88,3.26,1.82,1.82,0,0,0,.77.25c-.3.53-.94.66-1.67.24A4.16,4.16,0,0,1,257,86.84C257,86,257.49,85.47,258.14,85.51Z"/><path class="cls-3" d="M246.82,79a1.64,1.64,0,0,0-.2.85,4.14,4.14,0,0,0,1.88,3.25,1.69,1.69,0,0,0,.77.25c-.31.54-.94.67-1.67.24a4.14,4.14,0,0,1-1.88-3.25C245.72,79.43,246.17,78.94,246.82,79Z"/><path class="cls-3" d="M241.63,76a1.64,1.64,0,0,0-.2.85,4.14,4.14,0,0,0,1.88,3.25,1.69,1.69,0,0,0,.77.25c-.31.54-.94.67-1.67.24a4.14,4.14,0,0,1-1.88-3.25C240.53,76.43,241,75.94,241.63,76Z"/><path class="cls-3" d="M230.31,69.44a1.63,1.63,0,0,0-.2.84A4.16,4.16,0,0,0,232,73.54a1.78,1.78,0,0,0,.77.25c-.31.53-.94.66-1.68.24a4.17,4.17,0,0,1-1.87-3.26C229.21,69.89,229.66,69.4,230.31,69.44Z"/><path class="cls-3" d="M225.12,66.44a1.63,1.63,0,0,0-.2.84,4.16,4.16,0,0,0,1.88,3.26,1.78,1.78,0,0,0,.77.25c-.31.53-.94.66-1.68.24A4.17,4.17,0,0,1,224,67.77C224,66.89,224.47,66.4,225.12,66.44Z"/><path class="cls-3" d="M213.8,59.9a1.64,1.64,0,0,0-.2.85A4.14,4.14,0,0,0,215.48,64a1.66,1.66,0,0,0,.77.25c-.31.54-.94.67-1.68.24a4.17,4.17,0,0,1-1.88-3.25C212.69,60.36,213.15,59.87,213.8,59.9Z"/><path class="cls-3" d="M208.61,56.9a1.64,1.64,0,0,0-.2.85A4.14,4.14,0,0,0,210.29,61a1.66,1.66,0,0,0,.77.25c-.31.54-.94.67-1.68.24a4.17,4.17,0,0,1-1.88-3.25C207.5,57.36,208,56.87,208.61,56.9Z"/><path class="cls-3" d="M197.29,50.37a1.63,1.63,0,0,0-.2.84A4.17,4.17,0,0,0,199,54.47a1.86,1.86,0,0,0,.78.25c-.31.53-.94.66-1.68.24a4.18,4.18,0,0,1-1.88-3.26C196.18,50.82,196.64,50.33,197.29,50.37Z"/><path class="cls-3" d="M192.1,47.37a1.63,1.63,0,0,0-.2.84,4.17,4.17,0,0,0,1.87,3.26,1.86,1.86,0,0,0,.78.25c-.31.53-.94.66-1.68.24A4.18,4.18,0,0,1,191,48.7C191,47.83,191.45,47.34,192.1,47.37Z"/><path class="cls-3" d="M180.78,40.83a1.64,1.64,0,0,0-.21.85,4.17,4.17,0,0,0,1.88,3.25,1.73,1.73,0,0,0,.78.25c-.31.54-.94.67-1.68.24a4.14,4.14,0,0,1-1.88-3.25C179.67,41.29,180.13,40.8,180.78,40.83Z"/><path class="cls-3" d="M175.59,37.83a1.64,1.64,0,0,0-.2.85,4.16,4.16,0,0,0,1.87,3.25,1.73,1.73,0,0,0,.78.25c-.31.54-.94.67-1.68.24a4.14,4.14,0,0,1-1.88-3.25C174.48,38.29,174.94,37.8,175.59,37.83Z"/><path class="cls-3" d="M164.27,31.3a1.63,1.63,0,0,0-.21.84,4.18,4.18,0,0,0,1.88,3.26,1.73,1.73,0,0,0,.78.25c-.31.53-.94.66-1.68.24a4.16,4.16,0,0,1-1.88-3.26C163.16,31.76,163.62,31.27,164.27,31.3Z"/><path class="cls-3" d="M159.08,28.3a1.63,1.63,0,0,0-.21.84,4.18,4.18,0,0,0,1.88,3.26,1.73,1.73,0,0,0,.78.25c-.31.53-.94.66-1.68.24A4.16,4.16,0,0,1,158,29.63C158,28.76,158.43,28.27,159.08,28.3Z"/><path class="cls-2" d="M149.83,24.58V41.51l124.29,71.76V96.33a10,10,0,0,0-4.54-7.86L154.37,22C151.87,20.51,149.83,21.68,149.83,24.58Zm112.4,65.26c0-1.19.84-1.68,1.88-1.08A4.16,4.16,0,0,1,266,92c0,1.2-.84,1.68-1.87,1.08A4.14,4.14,0,0,1,262.23,89.84Zm-5.19-3c0-1.2.84-1.68,1.87-1.09A4.15,4.15,0,0,1,260.79,89c0,1.2-.84,1.68-1.88,1.08A4.14,4.14,0,0,1,257,86.85Zm-11.32-6.54c0-1.19.84-1.68,1.87-1.08a4.14,4.14,0,0,1,1.88,3.25c0,1.19-.84,1.68-1.88,1.08A4.16,4.16,0,0,1,245.72,80.31Zm-5.19-3c0-1.19.84-1.68,1.87-1.08a4.14,4.14,0,0,1,1.88,3.25c0,1.19-.84,1.68-1.88,1.08A4.16,4.16,0,0,1,240.53,77.31Zm-11.32-6.53c0-1.2.84-1.68,1.87-1.08A4.14,4.14,0,0,1,233,72.94c0,1.2-.84,1.69-1.88,1.09A4.16,4.16,0,0,1,229.21,70.78Zm-5.19-3c0-1.19.83-1.68,1.87-1.08A4.14,4.14,0,0,1,227.77,70c0,1.19-.84,1.68-1.88,1.08A4.13,4.13,0,0,1,224,67.78ZM212.7,61.25c0-1.2.84-1.68,1.87-1.08a4.12,4.12,0,0,1,1.88,3.24c0,1.2-.84,1.68-1.88,1.08A4.14,4.14,0,0,1,212.7,61.25Zm-5.2-3c0-1.2.84-1.68,1.88-1.08a4.11,4.11,0,0,1,1.87,3.24c0,1.2-.83,1.68-1.87,1.09A4.15,4.15,0,0,1,207.5,58.25Zm-11.31-6.53c0-1.2.84-1.69,1.87-1.09a4.14,4.14,0,0,1,1.88,3.25c0,1.2-.84,1.68-1.88,1.08A4.15,4.15,0,0,1,196.19,51.72Zm-5.2-3c0-1.2.84-1.68,1.88-1.09a4.17,4.17,0,0,1,1.87,3.25c0,1.2-.84,1.68-1.87,1.08A4.12,4.12,0,0,1,191,48.72Zm-11.31-6.54c0-1.19.84-1.68,1.87-1.08a4.14,4.14,0,0,1,1.88,3.25c0,1.19-.84,1.68-1.88,1.08A4.16,4.16,0,0,1,179.68,42.18Zm-5.2-3c0-1.19.84-1.68,1.88-1.08a4.16,4.16,0,0,1,1.87,3.25c0,1.19-.84,1.68-1.87,1.08A4.14,4.14,0,0,1,174.48,39.18Zm-11.31-6.53c0-1.2.84-1.68,1.87-1.08a4.14,4.14,0,0,1,1.88,3.25c0,1.19-.84,1.68-1.88,1.08A4.16,4.16,0,0,1,163.17,32.65Zm-5.2-3c0-1.19.84-1.68,1.88-1.08a4.16,4.16,0,0,1,1.87,3.25c0,1.19-.84,1.68-1.87,1.08A4.14,4.14,0,0,1,158,29.65Z"/><path class="cls-3" d="M168.72,46.65,255.23,96.6c.69.39,1.24,0,1.24-.94h0a3,3,0,0,0-1.24-2.38L168.72,43.34c-.68-.4-1.24,0-1.24.94h0A3,3,0,0,0,168.72,46.65Z"/><polygon class="cls-2" points="166.96 75.94 175.81 81.05 175.81 73.56 166.96 68.45 166.96 75.94"/><polygon class="cls-2" points="180.49 83.75 189.34 88.86 189.34 81.37 180.49 76.26 180.49 83.75"/><polygon class="cls-2" points="166.96 88.17 175.81 93.28 175.81 85.79 166.96 80.68 166.96 88.17"/><polygon class="cls-2" points="180.49 95.98 189.34 101.09 189.34 93.6 180.49 88.49 180.49 95.98"/><polygon class="cls-6" points="194.02 103.79 202.87 108.9 202.87 101.41 194.02 96.3 194.02 103.79"/><polygon class="cls-6" points="207.55 111.61 216.4 116.72 216.4 109.22 207.55 104.11 207.55 111.61"/><polygon class="cls-6" points="221.08 119.42 229.93 124.53 229.93 117.03 221.08 111.92 221.08 119.42"/><polygon class="cls-6" points="234.61 127.23 243.46 132.34 243.46 124.85 234.61 119.74 234.61 127.23"/><polygon class="cls-6" points="248.14 135.04 256.99 140.15 256.99 132.66 248.14 127.55 248.14 135.04"/><polygon class="cls-2" points="166.96 100.4 175.81 105.51 175.81 98.02 166.96 92.91 166.96 100.4"/><polygon class="cls-2" points="180.49 108.22 189.34 113.33 189.34 105.83 180.49 100.72 180.49 108.22"/><polygon class="cls-6" points="194.02 116.03 202.87 121.14 202.87 113.64 194.02 108.53 194.02 116.03"/><polygon class="cls-6" points="207.55 123.84 216.4 128.95 216.4 121.46 207.55 116.35 207.55 123.84"/><polygon class="cls-6" points="221.08 131.65 229.93 136.76 229.93 129.27 221.08 124.16 221.08 131.65"/><polygon class="cls-6" points="234.61 139.46 243.46 144.57 243.46 137.08 234.61 131.97 234.61 139.46"/><polygon class="cls-6" points="248.14 147.27 256.99 152.38 256.99 144.89 248.14 139.78 248.14 147.27"/><polygon class="cls-2" points="166.96 112.64 175.81 117.75 175.81 110.25 166.96 105.14 166.96 112.64"/><polygon class="cls-2" points="180.49 120.45 189.34 125.56 189.34 118.07 180.49 112.96 180.49 120.45"/><polygon class="cls-6" points="194.02 128.26 202.87 133.37 202.87 125.88 194.02 120.77 194.02 128.26"/><polygon class="cls-6" points="207.55 136.07 216.4 141.18 216.4 133.69 207.55 128.58 207.55 136.07"/><polygon class="cls-6" points="221.08 143.88 229.93 148.99 229.93 141.5 221.08 136.39 221.08 143.88"/><polygon class="cls-6" points="234.61 151.69 243.46 156.8 243.46 149.31 234.61 144.2 234.61 151.69"/><polygon class="cls-6" points="248.14 159.5 256.99 164.62 256.99 157.12 248.14 152.01 248.14 159.5"/><polygon class="cls-2" points="166.96 124.87 175.81 129.98 175.81 122.49 166.96 117.38 166.96 124.87"/><polygon class="cls-2" points="180.49 132.68 189.34 137.79 189.34 130.3 180.49 125.19 180.49 132.68"/><polygon class="cls-6" points="194.02 140.49 202.87 145.6 202.87 138.11 194.02 133 194.02 140.49"/><polygon class="cls-6" points="207.55 148.3 216.4 153.41 216.4 145.92 207.55 140.81 207.55 148.3"/><polygon class="cls-6" points="221.08 156.12 229.93 161.22 229.93 153.73 221.08 148.62 221.08 156.12"/><polygon class="cls-6" points="234.61 163.93 243.46 169.04 243.46 161.54 234.61 156.44 234.61 163.93"/><polygon class="cls-6" points="248.14 171.74 256.99 176.85 256.99 169.36 248.14 164.25 248.14 171.74"/><path class="cls-1" d="M255.59,83.72c0,4.13,2.9,5.8,6.48,3.74a14.34,14.34,0,0,0,6.47-11.21c0-4.13-2.9-5.8-6.47-3.74A14.29,14.29,0,0,0,255.59,83.72Zm1.38-.8a11.26,11.26,0,0,1,5.1-8.82c2.81-1.62,5.09-.3,5.09,2.94a11.25,11.25,0,0,1-5.09,8.82C259.25,87.49,257,86.17,257,82.92Z"/><polygon class="cls-1" points="258.11 88.39 257.39 87.85 258 88 258.11 88.39"/><polygon class="cls-1" points="266.88 72.21 267.87 72.93 267.06 73.17 266.88 72.21"/><path class="cls-3" d="M256.48,84.37c0,4.13,2.9,5.8,6.48,3.74a14.31,14.31,0,0,0,6.47-11.21c0-4.13-2.9-5.8-6.47-3.74A14.3,14.3,0,0,0,256.48,84.37Zm1.38-.79a11.23,11.23,0,0,1,5.1-8.82c2.81-1.63,5.09-.31,5.09,2.94A11.28,11.28,0,0,1,263,86.52C260.14,88.14,257.86,86.82,257.86,83.58Z"/><polygon class="cls-3" points="263.21 84.91 264.17 83.84 266.95 85.45 265.17 86.35 263.21 84.91"/><path class="cls-2" d="M263.18,84.77l2.51,1.45L264,87.93l-3.2,1.43a4,4,0,0,0-1.09-3Z"/><path class="cls-1" d="M239.07,74.18c0,4.13,2.9,5.8,6.48,3.74A14.31,14.31,0,0,0,252,66.71c0-4.13-2.9-5.8-6.47-3.74A14.3,14.3,0,0,0,239.07,74.18Zm1.38-.79a11.23,11.23,0,0,1,5.1-8.82c2.81-1.63,5.09-.31,5.09,2.94a11.28,11.28,0,0,1-5.09,8.82C242.73,78,240.45,76.63,240.45,73.39Z"/><polygon class="cls-1" points="241.59 78.85 240.87 78.31 241.48 78.46 241.59 78.85"/><polygon class="cls-1" points="250.36 62.67 251.35 63.4 250.54 63.63 250.36 62.67"/><path class="cls-3" d="M240,74.83c0,4.13,2.9,5.81,6.48,3.74a14.31,14.31,0,0,0,6.47-11.21c0-4.13-2.9-5.8-6.47-3.74A14.32,14.32,0,0,0,240,74.83Zm1.38-.79a11.23,11.23,0,0,1,5.1-8.82c2.81-1.63,5.09-.31,5.09,2.94A11.28,11.28,0,0,1,246.44,77C243.62,78.6,241.34,77.29,241.34,74Z"/><polygon class="cls-3" points="246.69 75.37 247.65 74.3 250.43 75.91 248.65 76.82 246.69 75.37"/><path class="cls-2" d="M246.66,75.23l2.51,1.45-1.73,1.71-3.2,1.43a4,4,0,0,0-1.09-3Z"/><path class="cls-1" d="M244.27,77.19c0,4.13,2.9,5.8,6.48,3.73a14.31,14.31,0,0,0,6.47-11.21c0-4.12-2.9-5.8-6.47-3.73A14.29,14.29,0,0,0,244.27,77.19Zm1.38-.8a11.23,11.23,0,0,1,5.1-8.82c2.81-1.62,5.09-.31,5.09,2.94a11.25,11.25,0,0,1-5.09,8.82C247.93,81,245.65,79.64,245.65,76.39Z"/><polygon class="cls-1" points="246.79 81.85 246.07 81.32 246.68 81.47 246.79 81.85"/><polygon class="cls-1" points="255.56 65.68 256.55 66.4 255.74 66.64 255.56 65.68"/><path class="cls-3" d="M245.16,77.84c0,4.13,2.9,5.8,6.48,3.74a14.34,14.34,0,0,0,6.47-11.22c0-4.12-2.9-5.8-6.47-3.73A14.29,14.29,0,0,0,245.16,77.84Zm1.38-.8a11.25,11.25,0,0,1,5.1-8.82c2.81-1.62,5.09-.31,5.09,2.94A11.25,11.25,0,0,1,251.64,80C248.82,81.61,246.54,80.29,246.54,77Z"/><polygon class="cls-3" points="251.89 78.37 252.85 77.31 255.63 78.91 253.85 79.82 251.89 78.37"/><path class="cls-2" d="M251.86,78.23l2.51,1.46-1.73,1.71-3.2,1.43a4,4,0,0,0-1.09-3Z"/><path class="cls-1" d="M222.55,64.62c0,4.13,2.9,5.8,6.47,3.74a14.32,14.32,0,0,0,6.48-11.22c0-4.12-2.9-5.8-6.48-3.73A14.31,14.31,0,0,0,222.55,64.62Zm1.38-.8A11.27,11.27,0,0,1,229,55c2.82-1.62,5.1-.31,5.1,2.94a11.23,11.23,0,0,1-5.1,8.82C226.21,68.39,223.93,67.07,223.93,63.82Z"/><polygon class="cls-1" points="225.06 69.28 224.35 68.75 224.96 68.9 225.06 69.28"/><polygon class="cls-1" points="233.84 53.11 234.83 53.83 234.01 54.07 233.84 53.11"/><path class="cls-3" d="M223.44,65.27c0,4.13,2.9,5.8,6.47,3.74a14.32,14.32,0,0,0,6.48-11.21c0-4.13-2.9-5.8-6.48-3.74A14.31,14.31,0,0,0,223.44,65.27Zm1.38-.8a11.28,11.28,0,0,1,5.09-8.82c2.82-1.62,5.1-.3,5.1,2.94a11.23,11.23,0,0,1-5.1,8.82C227.1,69,224.82,67.72,224.82,64.47Z"/><polygon class="cls-3" points="230.17 65.8 231.1 64.75 233.89 66.36 232.13 67.25 230.17 65.8"/><path class="cls-2" d="M230.11,65.7l2.52,1.43-1.71,1.7-3.17,1.41a4.07,4.07,0,0,0-1.13-3Z"/><path class="cls-1" d="M227.75,67.62c0,4.13,2.9,5.8,6.47,3.74a14.29,14.29,0,0,0,6.48-11.21c0-4.13-2.9-5.8-6.48-3.74A14.34,14.34,0,0,0,227.75,67.62Zm1.38-.79A11.25,11.25,0,0,1,234.22,58c2.82-1.63,5.1-.31,5.1,2.94a11.26,11.26,0,0,1-5.1,8.82C231.41,71.39,229.13,70.07,229.13,66.83Z"/><polygon class="cls-1" points="230.26 72.29 229.55 71.75 230.16 71.9 230.26 72.29"/><polygon class="cls-1" points="239.04 56.11 240.03 56.84 239.22 57.08 239.04 56.11"/><path class="cls-3" d="M228.64,68.28c0,4.12,2.9,5.8,6.47,3.73a14.29,14.29,0,0,0,6.48-11.21c0-4.13-2.9-5.8-6.48-3.74A14.34,14.34,0,0,0,228.64,68.28Zm1.38-.8a11.25,11.25,0,0,1,5.09-8.82c2.82-1.63,5.1-.31,5.1,2.94a11.25,11.25,0,0,1-5.1,8.82C232.3,72,230,70.73,230,67.48Z"/><polygon class="cls-3" points="235.37 68.81 236.33 67.74 239.11 69.35 237.33 70.26 235.37 68.81"/><path class="cls-2" d="M235.33,68.67l2.51,1.45-1.72,1.71-3.18,1.42a4,4,0,0,0-1.12-3Z"/><path class="cls-1" d="M206,55.05c0,4.13,2.9,5.81,6.47,3.74A14.28,14.28,0,0,0,219,47.58c0-4.13-2.89-5.8-6.47-3.74A14.34,14.34,0,0,0,206,55.05Zm1.38-.79a11.25,11.25,0,0,1,5.09-8.82c2.81-1.63,5.09-.31,5.09,2.94a11.28,11.28,0,0,1-5.09,8.82C209.69,58.82,207.41,57.51,207.41,54.26Z"/><polygon class="cls-1" points="208.54 59.72 207.83 59.19 208.44 59.33 208.54 59.72"/><polygon class="cls-1" points="217.32 43.54 218.31 44.27 217.49 44.51 217.32 43.54"/><path class="cls-3" d="M206.92,55.71c0,4.12,2.9,5.8,6.47,3.73a14.29,14.29,0,0,0,6.48-11.21c0-4.13-2.9-5.8-6.48-3.73A14.31,14.31,0,0,0,206.92,55.71Zm1.38-.8a11.25,11.25,0,0,1,5.09-8.82c2.81-1.62,5.09-.31,5.09,2.94a11.25,11.25,0,0,1-5.09,8.82C210.58,59.47,208.3,58.16,208.3,54.91Z"/><polygon class="cls-3" points="213.65 56.24 214.58 55.21 217.34 56.8 215.61 57.69 213.65 56.24"/><path class="cls-2" d="M213.56,56.13l2.55,1.47-1.71,1.66-3.16,1.41a4.16,4.16,0,0,0-1.16-2.94Z"/><path class="cls-1" d="M211.23,58.06c0,4.13,2.9,5.8,6.47,3.74a14.31,14.31,0,0,0,6.47-11.21c0-4.13-2.89-5.81-6.47-3.74A14.31,14.31,0,0,0,211.23,58.06Zm1.38-.8a11.27,11.27,0,0,1,5.09-8.82c2.81-1.62,5.09-.31,5.09,2.94a11.25,11.25,0,0,1-5.09,8.82C214.89,61.83,212.61,60.51,212.61,57.26Z"/><polygon class="cls-1" points="213.74 62.73 213.03 62.19 213.64 62.34 213.74 62.73"/><polygon class="cls-1" points="222.52 46.55 223.51 47.27 222.69 47.51 222.52 46.55"/><path class="cls-3" d="M212.12,58.71c0,4.13,2.9,5.8,6.47,3.74a14.31,14.31,0,0,0,6.47-11.21c0-4.13-2.89-5.8-6.47-3.74A14.31,14.31,0,0,0,212.12,58.71Zm1.38-.8a11.28,11.28,0,0,1,5.09-8.82c2.81-1.62,5.09-.3,5.09,2.94a11.25,11.25,0,0,1-5.09,8.82C215.78,62.48,213.5,61.16,213.5,57.91Z"/><polygon class="cls-3" points="218.84 59.24 219.78 58.21 222.55 59.8 220.81 60.69 218.84 59.24"/><path class="cls-2" d="M218.76,59.13l2.53,1.46-1.69,1.68-3.17,1.43a4.23,4.23,0,0,0-1.15-3Z"/><path class="cls-1" d="M189.51,45.49c0,4.13,2.89,5.8,6.47,3.74A14.34,14.34,0,0,0,202.45,38c0-4.13-2.9-5.8-6.47-3.74A14.28,14.28,0,0,0,189.51,45.49Zm1.38-.8A11.28,11.28,0,0,1,196,35.87c2.81-1.62,5.09-.3,5.09,2.94A11.25,11.25,0,0,1,196,47.63C193.17,49.26,190.89,47.94,190.89,44.69Z"/><polygon class="cls-1" points="192.02 50.16 191.3 49.62 191.91 49.77 192.02 50.16"/><polygon class="cls-1" points="200.79 33.98 201.78 34.7 200.97 34.94 200.79 33.98"/><path class="cls-3" d="M190.4,46.14c0,4.13,2.89,5.8,6.47,3.74a14.31,14.31,0,0,0,6.47-11.21c0-4.13-2.9-5.8-6.47-3.74A14.29,14.29,0,0,0,190.4,46.14Zm1.38-.79a11.25,11.25,0,0,1,5.09-8.82c2.81-1.63,5.09-.31,5.09,2.94a11.28,11.28,0,0,1-5.09,8.82C194.06,49.91,191.78,48.59,191.78,45.35Z"/><polygon class="cls-3" points="197.12 46.67 198.04 45.66 200.79 47.25 199.08 48.12 197.12 46.67"/><path class="cls-2" d="M197,46.57l2.56,1.48-1.69,1.65-3.15,1.4a4.23,4.23,0,0,0-1.17-2.92Z"/><path class="cls-1" d="M194.7,48.5c0,4.12,2.9,5.8,6.48,3.73A14.31,14.31,0,0,0,207.65,41c0-4.13-2.9-5.8-6.47-3.74A14.32,14.32,0,0,0,194.7,48.5Zm1.39-.8a11.25,11.25,0,0,1,5.09-8.82c2.81-1.63,5.09-.31,5.09,2.94a11.27,11.27,0,0,1-5.09,8.82C198.37,52.26,196.09,51,196.09,47.7Z"/><polygon class="cls-1" points="197.22 53.16 196.5 52.63 197.11 52.77 197.22 53.16"/><polygon class="cls-1" points="206 36.98 206.99 37.71 206.17 37.95 206 36.98"/><path class="cls-3" d="M195.6,49.15c0,4.13,2.89,5.8,6.47,3.73a14.31,14.31,0,0,0,6.47-11.21c0-4.13-2.9-5.8-6.47-3.73A14.28,14.28,0,0,0,195.6,49.15Zm1.38-.8a11.25,11.25,0,0,1,5.09-8.82c2.81-1.62,5.09-.31,5.09,2.94a11.25,11.25,0,0,1-5.09,8.82C199.26,52.91,197,51.6,197,48.35Z"/><polygon class="cls-3" points="202.32 49.68 203.24 48.66 206 50.26 204.28 51.13 202.32 49.68"/><path class="cls-2" d="M202.22,49.58l2.55,1.47-1.69,1.65-3.15,1.41a4.29,4.29,0,0,0-1.19-2.94Z"/><path class="cls-1" d="M173,35.93c0,4.12,2.9,5.8,6.48,3.73a14.31,14.31,0,0,0,6.47-11.21c0-4.13-2.9-5.8-6.47-3.73A14.29,14.29,0,0,0,173,35.93Zm1.38-.8a11.23,11.23,0,0,1,5.1-8.82c2.81-1.62,5.09-.31,5.09,2.94a11.25,11.25,0,0,1-5.09,8.82C176.64,39.69,174.36,38.38,174.36,35.13Z"/><polygon class="cls-1" points="175.5 40.59 174.78 40.06 175.39 40.2 175.5 40.59"/><polygon class="cls-1" points="184.27 24.41 185.26 25.14 184.45 25.38 184.27 24.41"/><path class="cls-3" d="M173.87,36.58c0,4.13,2.9,5.8,6.48,3.74a14.34,14.34,0,0,0,6.47-11.22c0-4.12-2.9-5.8-6.47-3.73A14.29,14.29,0,0,0,173.87,36.58Zm1.38-.8a11.23,11.23,0,0,1,5.1-8.82c2.81-1.62,5.09-.31,5.09,2.94a11.25,11.25,0,0,1-5.09,8.82C177.53,40.35,175.25,39,175.25,35.78Z"/><polygon class="cls-3" points="180.6 37.11 181.5 36.11 184.25 37.7 182.56 38.56 180.6 37.11"/><path class="cls-2" d="M180.45,37,183,38.49l-1.66,1.64-3.12,1.4A4.11,4.11,0,0,0,177,38.62Z"/><path class="cls-1" d="M178.18,38.93c0,4.13,2.9,5.8,6.48,3.74a14.34,14.34,0,0,0,6.47-11.21c0-4.13-2.9-5.8-6.47-3.74A14.29,14.29,0,0,0,178.18,38.93Zm1.38-.8a11.26,11.26,0,0,1,5.1-8.82c2.81-1.62,5.09-.3,5.09,2.94a11.25,11.25,0,0,1-5.09,8.82C181.84,42.7,179.56,41.38,179.56,38.13Z"/><polygon class="cls-1" points="180.7 43.6 179.98 43.06 180.59 43.21 180.7 43.6"/><polygon class="cls-1" points="189.47 27.42 190.46 28.14 189.65 28.38 189.47 27.42"/><path class="cls-3" d="M179.07,39.58c0,4.13,2.9,5.8,6.48,3.74A14.31,14.31,0,0,0,192,32.11c0-4.13-2.9-5.8-6.47-3.74A14.32,14.32,0,0,0,179.07,39.58Zm1.38-.79a11.23,11.23,0,0,1,5.1-8.82c2.81-1.63,5.09-.31,5.09,2.94a11.28,11.28,0,0,1-5.09,8.82C182.73,43.35,180.45,42,180.45,38.79Z"/><polygon class="cls-3" points="185.8 40.12 186.71 39.12 189.45 40.7 187.76 41.56 185.8 40.12"/><path class="cls-2" d="M185.67,40l2.54,1.47-1.66,1.65-3.13,1.4a3.89,3.89,0,0,0-1.21-2.92Z"/><path class="cls-1" d="M156.46,26.36c0,4.13,2.9,5.8,6.47,3.74a14.29,14.29,0,0,0,6.48-11.21c0-4.13-2.9-5.8-6.48-3.74A14.32,14.32,0,0,0,156.46,26.36Zm1.38-.79a11.25,11.25,0,0,1,5.09-8.82c2.82-1.63,5.1-.31,5.1,2.94a11.26,11.26,0,0,1-5.1,8.82C160.12,30.13,157.84,28.81,157.84,25.57Z"/><polygon class="cls-1" points="158.97 31.03 158.26 30.49 158.87 30.64 158.97 31.03"/><polygon class="cls-1" points="167.75 14.85 168.74 15.58 167.93 15.81 167.75 14.85"/><path class="cls-3" d="M157.35,27c0,4.13,2.9,5.81,6.47,3.74a14.29,14.29,0,0,0,6.48-11.21c0-4.13-2.9-5.8-6.48-3.74A14.34,14.34,0,0,0,157.35,27Zm1.38-.79a11.25,11.25,0,0,1,5.09-8.82c2.82-1.63,5.1-.31,5.1,2.94a11.26,11.26,0,0,1-5.1,8.82C161,30.78,158.73,29.46,158.73,26.22Z"/><polygon class="cls-3" points="164.08 27.55 164.97 26.57 167.71 28.15 166.04 29 164.08 27.55"/><path class="cls-2" d="M163.93,27.47l2.54,1.47-1.64,1.63L161.72,32a4.11,4.11,0,0,0-1.25-2.91Z"/><path class="cls-1" d="M161.66,29.37c0,4.13,2.9,5.8,6.47,3.73a14.29,14.29,0,0,0,6.48-11.21c0-4.13-2.9-5.8-6.48-3.73A14.31,14.31,0,0,0,161.66,29.37Zm1.38-.8a11.25,11.25,0,0,1,5.09-8.82c2.82-1.62,5.1-.31,5.1,2.94a11.23,11.23,0,0,1-5.1,8.82C165.32,33.13,163,31.82,163,28.57Z"/><polygon class="cls-1" points="164.17 34.03 163.46 33.5 164.07 33.65 164.17 34.03"/><polygon class="cls-1" points="172.95 17.86 173.94 18.58 173.13 18.82 172.95 17.86"/><path class="cls-3" d="M162.55,30c0,4.13,2.9,5.8,6.47,3.74a14.32,14.32,0,0,0,6.48-11.22c0-4.12-2.9-5.8-6.48-3.73A14.31,14.31,0,0,0,162.55,30Zm1.38-.8A11.27,11.27,0,0,1,169,20.4c2.82-1.62,5.1-.31,5.1,2.94a11.23,11.23,0,0,1-5.1,8.82C166.21,33.79,163.93,32.47,163.93,29.22Z"/><polygon class="cls-3" points="169.28 30.55 170.17 29.57 172.91 31.15 171.24 32 169.28 30.55"/><path class="cls-2" d="M169.12,30.47l2.56,1.47L170,33.58,166.91,35a4.18,4.18,0,0,0-1.24-3Z"/><path class="cls-1" d="M260.79,86.72c0,4.13,2.89,5.8,6.47,3.74a14.31,14.31,0,0,0,6.47-11.21c0-4.13-2.9-5.8-6.47-3.74A14.29,14.29,0,0,0,260.79,86.72Zm1.38-.79a11.25,11.25,0,0,1,5.09-8.82c2.81-1.63,5.09-.31,5.09,2.94a11.28,11.28,0,0,1-5.09,8.82C264.45,90.49,262.17,89.17,262.17,85.93Z"/><polygon class="cls-1" points="263.3 91.39 262.58 90.85 263.2 91 263.3 91.39"/><polygon class="cls-1" points="272.08 75.21 273.07 75.94 272.25 76.17 272.08 75.21"/><path class="cls-3" d="M261.68,87.37c0,4.13,2.9,5.81,6.47,3.74a14.28,14.28,0,0,0,6.47-11.21c0-4.13-2.89-5.8-6.47-3.74A14.34,14.34,0,0,0,261.68,87.37Zm1.38-.79a11.25,11.25,0,0,1,5.09-8.82c2.81-1.63,5.09-.31,5.09,2.94a11.28,11.28,0,0,1-5.09,8.82C265.34,91.14,263.06,89.82,263.06,86.58Z"/><polygon class="cls-3" points="274.12 113.27 275.4 112.5 275.4 110.28 274.12 111.11 274.12 113.27"/><path class="cls-3" d="M268.4,87.91l1-1.07a16.23,16.23,0,0,1,2.68,1.73l-1.69.79Z"/><path class="cls-2" d="M268.37,87.77A12.32,12.32,0,0,1,271.45,90c1,1.17-5.5,2.35-5.5,2.35a4,4,0,0,0-1.09-3Z"/><path class="cls-1" d="M62.92,147.05a17.16,17.16,0,0,0-2.07-1h0l-4-1.78.3.7a25.94,25.94,0,0,0-9.38-.1l.18-.77-4.7,2.08h0a16,16,0,0,0-1.76.86c-5.91,3.41-5.91,8.94,0,12.35s15.48,3.41,21.38,0S68.83,150.46,62.92,147.05Z"/><path class="cls-2" d="M57.24,150.27a11.06,11.06,0,0,1-10,0c-2.77-1.59-2.77-4.19,0-5.78a11.06,11.06,0,0,1,10,0C60,146.08,60,148.68,57.24,150.27Z"/><path class="cls-2" d="M52.23,148.48h0a2.41,2.41,0,0,1-2.41-2.41V115.62h4.82v30.45A2.41,2.41,0,0,1,52.23,148.48Z"/><path class="cls-2" d="M53.93,116.73a3.88,3.88,0,0,1-3.48,0,1.06,1.06,0,0,1,0-2,3.81,3.81,0,0,1,3.48,0A1.06,1.06,0,0,1,53.93,116.73Z"/><path class="cls-1" d="M52.23,116.67h0a2,2,0,0,1-1.95-2V86.09h3.9v28.62A2,2,0,0,1,52.23,116.67Z"/><path class="cls-3" d="M80.31,101.09V100l1.58-.23,1.78-1.33a1.19,1.19,0,0,1,1.16,0l1.31.75,1.3-.18v1.13h0a.4.4,0,0,1-.29.34L83,102.25a1.27,1.27,0,0,1-1.08,0l-1.38-.79a.39.39,0,0,1-.23-.33Z"/><path class="cls-2" d="M80.48,99.67l3.19-2.39a1.19,1.19,0,0,1,1.16,0l2.38,1.37c.33.19.3.51-.07.68L83,101.12a1.27,1.27,0,0,1-1.08,0l-1.38-.79C80.26,100.12,80.23,99.85,80.48,99.67Z"/><path class="cls-1" d="M75.11,105.07a2.57,2.57,0,0,0,1.27-.31l5-2.86a.56.56,0,0,0,.21-.78.57.57,0,0,0-.78-.21l-5,2.86a1.66,1.66,0,0,1-1.41,0L66.17,99a.57.57,0,0,0-.57,1l8.23,4.77A2.58,2.58,0,0,0,75.11,105.07Z"/><polygon class="cls-10" points="27.51 94.6 35.46 89.98 31 87.97 27.19 90.67 27.51 94.6"/><path class="cls-2" d="M78.55,87.74a10.31,10.31,0,0,1-1.33-.83L60.28,74.5c-3.06-2.25-6.21-2.82-8.64-1.59-.07,0-.12.08-.18.11h0L28,86.59l2.11.7L38.34,91l11.14,7.91,8.8,4.67.4.08c2-1.72,4.35-3.21,5.61-5.72,2.17-3.82,8.24-4.91,11.8-8a12.07,12.07,0,0,0,1.08.63A7.8,7.8,0,0,0,78.55,87.74Z"/><path class="cls-3" d="M86,82.14a1.56,1.56,0,0,0-1,.34h0L62.13,95.73,63,99.15l.86-.41c-1.31,2-3.32,3.39-5.14,4.92l2.59.55,22.42-13L84,91a4.83,4.83,0,0,0,.86-.55l0,0h0c1.7-1.32,2.67-3.61,2.67-6.47v-.27A1.58,1.58,0,0,0,86,82.14Z"/><path class="cls-11" d="M54.63,72.28a9.61,9.61,0,0,1,4.5,1.45A9.61,9.61,0,0,0,54.63,72.28Z"/><path class="cls-2" d="M65.06,96.79v-.27a1.58,1.58,0,0,0-3.15,0v.27c0,2.11-.67,3.65-1.83,4.24-1.32.67-3.32.18-5.36-1.31L37.78,87.3c-2.61-1.91-5.28-2.6-7.52-2l14-8.12L28,86.59l2.11.7L38.34,91l11.14,7.91,8.8,4.67.4.08c2-1.72,4.35-3.21,5.61-5.72a6.1,6.1,0,0,1,.77-1.06Z"/><path class="cls-1" d="M58.27,105a10.17,10.17,0,0,1-5.89-2.22L35.44,90.35c-2-1.49-4-2-5.36-1.32-1.17.59-1.84,2.14-1.84,4.24a1.57,1.57,0,1,1-3.14,0c0-3.33,1.29-5.9,3.56-7,2.43-1.24,5.58-.66,8.64,1.58l16.94,12.41c2,1.5,4,2,5.35,1.32s1.84-2.14,1.84-4.24V97a1.58,1.58,0,0,1,3.15,0v.27c0,3.33-1.3,5.9-3.56,7A6.1,6.1,0,0,1,58.27,105Z"/><path class="cls-4" d="M45,132.73s-3.19-1.6-5.15.79-4.76,8-4.85,11.87,3,3.57,4.88,2.66,7.25-8.74,7.58-10.27a5.36,5.36,0,0,0-.91-4C46,133.35,45,132.73,45,132.73Z"/><path class="cls-2" d="M45.66,132l.14,3.3a1.86,1.86,0,0,1-.93,1.72,3.64,3.64,0,0,1-2.46.38C40,137,39.79,136.3,39.62,133S45.66,132,45.66,132Z"/><path class="cls-4" d="M33.28,126.38s-3.19-1.61-5.15.79-4.76,8-4.84,11.87,3,3.56,4.87,2.66,7.25-8.74,7.58-10.28a5.38,5.38,0,0,0-.91-4C34.31,127,33.28,126.38,33.28,126.38Z"/><path class="cls-2" d="M34,125.61l.15,3.31a1.89,1.89,0,0,1-.94,1.72,3.76,3.76,0,0,1-2.46.38c-2.4-.39-2.62-1.08-2.79-4.38S34,125.61,34,125.61Z"/><path class="cls-1" d="M62.45,64.93c-1-15.37-16.64,2.26-16.64,2.26L35.06,77.72,25.39,88.34A9.52,9.52,0,0,0,23,96l3.91,29.8a2.93,2.93,0,0,0,2.94,2.54,9,9,0,0,0,1.45-.13,3.63,3.63,0,0,0,3.23-3.86l-.71-27.86L54.12,84.24S63.39,80.29,62.45,64.93Z"/><path class="cls-1" d="M74.12,70.78C73.18,55.42,57.48,73,57.48,73L46.74,83.57,37.07,94.2a9.5,9.5,0,0,0-2.4,7.66l3.91,29.79a2.92,2.92,0,0,0,2.94,2.54,10.19,10.19,0,0,0,1.45-.12,3.64,3.64,0,0,0,3.23-3.86l-.72-27.87L65.8,90.09S75.07,86.15,74.12,70.78Z"/><path class="cls-2" d="M64.84,21.46c11.9,4.94,11.66,12,11.66,12s-2.33,25.79-1.54,43c.34,7.2-38.25,7.74-32.49-11.46,6.78-22.65,4.24-41,7.42-43.74S61.76,20.19,64.84,21.46Z"/><path class="cls-12" d="M68.67,27.7c-.63,2.42-3.79,3.69-7.07,2.84s-5.44-3.49-4.82-5.9S60.57,21,63.85,21.8,69.29,25.28,68.67,27.7Z"/><path class="cls-6" d="M63.61,31.37a8.6,8.6,0,0,1-2.16-.28,7.88,7.88,0,0,1-4.17-2.55,4.56,4.56,0,0,1-1.05-4c.7-2.72,4.18-4.18,7.76-3.26s5.93,3.89,5.23,6.6h0C68.66,30,66.34,31.37,63.61,31.37Zm-1.8-9.27c-2.21,0-4.05,1-4.48,2.68a3.46,3.46,0,0,0,.83,3A6.84,6.84,0,0,0,61.74,30c3,.77,5.83-.32,6.38-2.43s-1.44-4.45-4.41-5.21A7.46,7.46,0,0,0,61.81,22.1Z"/><path class="cls-12" d="M60.07,20.93A29.71,29.71,0,0,1,60,25.17c-.06,1.19,4.09,2.3,5.16,1.22s.65-2.18.9-6.22S60.07,20.93,60.07,20.93Z"/><path class="cls-13" d="M66,20.17S65,23.91,60,25.35L60,22Z"/><circle class="cls-12" cx="60.35" cy="12.96" r="9.16" transform="translate(18.25 58.1) rotate(-59.12)"/><path class="cls-13" d="M62.45,13.3s-5,2.16-8.53,2.18-2.72-2.9-2.72-2.9l10.36-1.5Z"/><path class="cls-7" d="M52.88,13.87s4.39-1.87,8.24-1.09a4,4,0,0,1,2.33,1.38,1.32,1.32,0,0,0,.71.51c.68.16,1.8-2.68,3.13-2.74s2.21.87,1.12,2.62-.72,3.69-.22,4S74,14.73,69.32,5.44,52.72,1.16,50.87,3c0,0-1.95,1.7-3.54.19C47.33,3.23,45.55,16.55,52.88,13.87Z"/><path class="cls-12" d="M69.82,52.27v7a2.82,2.82,0,0,1-.92,2.09l-14.32,13,1.63,2.49,18.9-13.71a3.87,3.87,0,0,0,1.57-2.71L78,48.3Z"/><path class="cls-2" d="M75.49,30s4.34,6.53,6,23.72c0,0-7.42,2.39-11.63,1S75.49,30,75.49,30Z"/><path class="cls-3" d="M69,38.2s-1.7,9.1-1.8,13.38A2.75,2.75,0,0,0,69,54.21h0Z"/><path class="cls-4" d="M65.32,83.44,62.15,83,41.73,71.24a2.81,2.81,0,0,0-2.55.1L24.71,79.69l-1.91-.25v1.9h0a.74.74,0,0,0,.44.68L46.38,95.38a2.84,2.84,0,0,0,2.55-.11l15.76-9.09a1,1,0,0,0,.63-.86h0Z"/><path class="cls-3" d="M50,76l-1.45-.83h-16l-7.86,4.53-1.91-.25v1.9h0a.74.74,0,0,0,.44.68L46.38,95.38a2.34,2.34,0,0,0,1.32.24Z"/><path class="cls-2" d="M23.64,79.55l-.84-.11v1.9h0a.74.74,0,0,0,.44.68l.4.23Z"/><path class="cls-5" d="M46.61,95.49a3,3,0,0,0,2.17-.14V92.11H46.61Z"/><path class="cls-6" d="M46.38,93.47,23.24,80.11c-.66-.38-.58-1,.18-1.47l15.76-9.1a2.84,2.84,0,0,1,2.55-.1L64.88,82.8c.65.38.57,1-.19,1.47l-15.76,9.1A2.84,2.84,0,0,1,46.38,93.47Z"/><path class="cls-1" d="M46,91.45,26.74,80.34c-.54-.32-.47-.86.16-1.23l8.44-4.75a2.36,2.36,0,0,1,2.13-.08L56.71,85.39c.54.31.48.86-.15,1.22l-8.45,4.75A2.38,2.38,0,0,1,46,91.45Z"/><path class="cls-12" d="M40.07,69.1l-.24,1.6a12,12,0,0,0,.11,4.09l.28,1.41a2,2,0,0,0,1.59,1.56h0a1.1,1.1,0,0,0,1.28-1l.38-3.41s.87,1.14,1.3,1.14-.48-3.41-1.43-5.35S40.07,69.1,40.07,69.1Z"/><path class="cls-12" d="M47.92,43.72l-2.49,4.92a9.68,9.68,0,0,0-1,3.73L43.34,69.18l-3.27-.08L38.59,50.22a6.76,6.76,0,0,1,.08-1.74l1.7-9.57Z"/><path class="cls-4" d="M45.6,94.76l-1.94-2.54L23.25,80.41a2.8,2.8,0,0,1-1.18-2.27V61.44L20.91,59.9l1.1-.64h0a.73.73,0,0,1,.8,0L45.94,72.7A2.86,2.86,0,0,1,47.12,75l0,18.19a1,1,0,0,1-.43,1h0Z"/><path class="cls-3" d="M31.48,85.18,30,84.34l-8-13.83V61.44L20.91,59.9l1.1-.64h0a.73.73,0,0,1,.8,0L45.94,72.7a2.33,2.33,0,0,1,.87,1Z"/><path class="cls-2" d="M21.43,60.58l-.52-.68,1.1-.64h0a.73.73,0,0,1,.8,0l.41.24Z"/><path class="cls-5" d="M46.15,72.85a3,3,0,0,1,1,2l-2.26,1.3-1.09-1.88Z"/><path class="cls-2" d="M44.84,73.34,21.71,60c-.65-.38-1.18,0-1.18.9l0,18.19a2.84,2.84,0,0,0,1.18,2.27L44.82,94.7c.65.38,1.18,0,1.18-.9l0-18.19A2.85,2.85,0,0,0,44.84,73.34Z"/><path class="cls-12" d="M56.21,76.87l-.37.77a5.18,5.18,0,0,1-1.93,2.14l-2.3,1.42a2.3,2.3,0,0,1-2.35,0l-.07,0a1.38,1.38,0,0,1-.2-2.12l2.4-2.47s-1.35,1-1.72.62,1.3-1.79,2.52-1.84a4.76,4.76,0,0,0,2.39-1Z"/><path class="cls-2" d="M50.12,21.2s-8.8,9.58-12.35,18.36a18,18,0,0,0,10.38,7.55C55.51,49.24,50.12,21.2,50.12,21.2Z"/><path class="cls-3" d="M46.49,46.54l1.43-13.78L44.56,45.67A20.34,20.34,0,0,0,46.49,46.54Z"/><path class="cls-6" d="M56.72,19.27l-2.37-.65a5.75,5.75,0,0,0,2.78,2.23c1.65.45,1.9-1,1.9-1Z"/><path class="cls-2" d="M252,191.67a.66.66,0,0,1-.33-.09L164,141a.67.67,0,0,1-.25-.92.68.68,0,0,1,.92-.25l87.61,50.58a.67.67,0,0,1,.24.92A.66.66,0,0,1,252,191.67Z"/><polygon class="cls-1" points="31.67 230 40.46 235.21 33.93 238.88 25.14 233.67 31.67 230"/><polygon class="cls-1" points="53.53 244.31 62.33 249.52 55.79 253.19 47 247.97 53.53 244.31"/><polygon class="cls-7" points="72.81 256.53 81.6 261.75 75.07 265.42 66.28 260.2 72.81 256.53"/><polygon class="cls-7" points="125.81 123.52 134.6 128.73 128.06 132.4 119.28 127.19 125.81 123.52"/><polygon class="cls-2" points="121.18 55.23 129.97 60.45 123.44 64.12 114.65 58.91 121.18 55.23"/><polygon class="cls-2" points="6.53 91.86 15.32 97.07 8.79 100.74 0 95.53 6.53 91.86"/><polygon class="cls-2" points="164.16 156.78 172.95 162 166.42 165.67 157.63 160.45 164.16 156.78"/><polygon class="cls-1" points="135.51 86.49 144.3 91.7 137.77 95.37 128.98 90.16 135.51 86.49"/><polygon class="cls-1" points="67.53 121.86 76.32 127.07 69.79 130.74 61 125.53 67.53 121.86"/><polygon class="cls-2" points="285.91 75.91 294.7 81.12 288.17 84.79 279.38 79.58 285.91 75.91"/><polygon class="cls-1" points="231.63 193.37 240.42 198.58 233.89 202.25 225.1 197.04 231.63 193.37"/><polygon class="cls-1" points="95.41 268.96 104.2 274.18 97.67 277.85 88.88 272.63 95.41 268.96"/><polygon class="cls-2" points="59.87 268.96 68.66 274.18 62.13 277.85 53.34 272.63 59.87 268.96"/><polygon class="cls-1" points="85.48 280.48 94.27 285.69 87.74 289.36 78.95 284.15 85.48 280.48"/><polygon class="cls-2" points="115.7 281.33 124.49 286.55 117.96 290.21 109.17 285 115.7 281.33"/><polygon class="cls-1" points="136.34 294.05 145.13 299.27 138.6 302.94 129.81 297.72 136.34 294.05"/><polygon class="cls-7" points="263.95 223.55 272.74 228.76 266.21 232.43 257.42 227.22 263.95 223.55"/><polygon class="cls-1" points="34.44 252.09 43.23 257.31 36.7 260.98 27.91 255.76 34.44 252.09"/><path class="cls-14" d="M31.54,174.26,11.46,162.67a1,1,0,0,0-1-.09h0l-1.94,1.12,1.36.5v14.63a3.87,3.87,0,0,0,1.62,3.08L30.65,193v1.72l2-1.14h0a1.44,1.44,0,0,0,.54-1.29V177.34A3.85,3.85,0,0,0,31.54,174.26Z"/><path class="cls-7" d="M29.55,194.64,9.48,183A3.83,3.83,0,0,1,7.86,180V165c0-1.19.72-1.74,1.62-1.22L29.55,175.4a3.85,3.85,0,0,1,1.62,3.09v14.92C31.17,194.6,30.45,195.15,29.55,194.64Z"/><path class="cls-6" d="M16.23,177.9c0,.86-.61,1.21-1.36.78a3,3,0,0,1-1.35-2.34c0-.87.61-1.22,1.35-.79A3,3,0,0,1,16.23,177.9Z"/><path class="cls-6" d="M20.33,180.27c0,.86-.6,1.21-1.35.78a3,3,0,0,1-1.36-2.34c0-.87.61-1.22,1.36-.79A3,3,0,0,1,20.33,180.27Z"/><path class="cls-6" d="M24.44,182.64c0,.86-.61,1.21-1.36.78a3,3,0,0,1-1.35-2.35c0-.86.6-1.21,1.35-.78A3,3,0,0,1,24.44,182.64Z"/><path class="cls-2" d="M257.41,29.45,237.34,17.86a1,1,0,0,0-1-.08h0l-2,1.12,1.37.5V34a3.86,3.86,0,0,0,1.62,3.09l19.19,11.08v1.71l2-1.13h0a1.43,1.43,0,0,0,.55-1.29V32.54A3.86,3.86,0,0,0,257.41,29.45Z"/><path class="cls-1" d="M255.43,49.83,235.35,38.24a3.86,3.86,0,0,1-1.61-3.08V20.23c0-1.19.72-1.74,1.61-1.22L255.43,30.6a3.86,3.86,0,0,1,1.62,3.08V48.61C257.05,49.8,256.32,50.35,255.43,49.83Z"/><path class="cls-6" d="M242.11,33.1c0,.86-.61,1.21-1.36.78a3,3,0,0,1-1.35-2.35c0-.86.6-1.21,1.35-.78A3,3,0,0,1,242.11,33.1Z"/><path class="cls-6" d="M246.21,35.47c0,.86-.61,1.21-1.36.78a3,3,0,0,1-1.35-2.35c0-.86.61-1.21,1.35-.78A3,3,0,0,1,246.21,35.47Z"/><path class="cls-6" d="M250.31,37.84c0,.86-.6,1.21-1.35.78a3,3,0,0,1-1.36-2.35c0-.86.61-1.21,1.36-.78A3,3,0,0,1,250.31,37.84Z"/><path class="cls-14" d="M239.16,21.18a17.09,17.09,0,0,0-7.73-13.39c-2.08-1.2-4-1.33-5.36-.59h0l-.08,0-.05,0-2.69,1.55,1.27-.08a7,7,0,0,0-.82,3.52,17.06,17.06,0,0,0,7.73,13.38,7.06,7.06,0,0,0,3.17,1c-.18.34-.6,1.17-.6,1.17l2.8-1.62.18-.1.12-.08h0C238.36,25.21,239.16,23.53,239.16,21.18Z"/><ellipse class="cls-7" cx="228.63" cy="18.33" rx="6.31" ry="10.93" transform="translate(21.47 116.78) rotate(-30)"/><path class="cls-6" d="M228.4,23.21a4.42,4.42,0,0,1-1.05-.81,3.4,3.4,0,0,1-.67-1,4.73,4.73,0,0,1-.33-1.11,7.15,7.15,0,0,1-.1-1.28l1.42.82a6.52,6.52,0,0,0,0,.68,2.84,2.84,0,0,0,.1.57,1.46,1.46,0,0,0,.24.52,1.39,1.39,0,0,0,.41.35.79.79,0,0,0,.28.1.56.56,0,0,0,.2,0,.32.32,0,0,0,.13-.19,2.13,2.13,0,0,0,.09-.27,2.46,2.46,0,0,0,0-.39c0-.18,0-.32,0-.44s0-.29,0-.52,0-.45,0-.62,0-.35-.06-.54a2.35,2.35,0,0,0-.13-.48,1.68,1.68,0,0,0-.23-.38,1.31,1.31,0,0,0-.36-.3.51.51,0,0,0-.51,0,.67.67,0,0,0-.29.44l-1.24-.72.06-5.39,3.84,2.22v1.53l-2.6-1.5-.08,2.25a.65.65,0,0,1,.46-.08,2.05,2.05,0,0,1,.66.24,3.2,3.2,0,0,1,.87.68,3.1,3.1,0,0,1,.58.94,5.1,5.1,0,0,1,.33,1.13,6.81,6.81,0,0,1,.11,1.31c0,.43,0,.81-.05,1.12a4.28,4.28,0,0,1-.2.87,1.22,1.22,0,0,1-.39.56.92.92,0,0,1-.64.12A2.39,2.39,0,0,1,228.4,23.21Z"/><path class="cls-7" d="M223.35,144.71l-3.67-6a1,1,0,0,1,.32-1.37,1,1,0,0,1,1.38.32l2.69,4.38,8.51-4.47a1,1,0,1,1,.93,1.77Z"/><path class="cls-7" d="M217.34,120.53a12.76,12.76,0,0,1-5.83-2c-5.19-3-7.82-7-7.82-12,0-2.79,1-4.89,2.78-5.93s4.11-.83,6.52.56c4.61,2.66,8.36,9.16,8.36,14.49,0,2.11-.65,3.56-1.93,4.3A4.14,4.14,0,0,1,217.34,120.53ZM209,101.88a3.15,3.15,0,0,0-1.6.41c-1.2.69-1.85,2.22-1.85,4.31,0,4.22,2.32,7.7,6.89,10.34,2.69,1.55,4.95,2.1,6.05,1.47.66-.39,1-1.29,1-2.69a16.47,16.47,0,0,0-7.43-12.88A6.28,6.28,0,0,0,209,101.88Z"/><path class="cls-7" d="M224.58,112.09a.93.93,0,0,1-.72-.34c-4.6-5.61-13.73-9.71-13.82-9.75a.93.93,0,0,1,.76-1.7c.39.17,9.62,4.31,14.5,10.27a.93.93,0,0,1-.72,1.52Z"/></g></g></svg>